<?xml version="1.0" standalone="no"?><!DOCTYPE svg PUBLIC "-//W3C//DTD SVG 1.1//EN" "http://www.w3.org/Graphics/SVG/1.1/DTD/svg11.dtd"><svg xmlns:xlink="http://www.w3.org/1999/xlink" version="1.1" style="font-family:open sans;font-size:12px;" xmlns="http://www.w3.org/2000/svg" width="1040" height="410"><desc>Created with Highcharts 4.1.5</desc><defs><clipPath id="highcharts-63"><rect x="0" y="0" width="806" height="196"></rect></clipPath></defs><rect x="0" y="0" width="1040" height="410" strokeWidth="0" fill="#FFFFFF" class=" highcharts-background"></rect><g class="highcharts-grid" ></g><g class="highcharts-grid" ></g><g class="highcharts-grid" ><path fill="none" d="M 106 332.5 L 912 332.5" stroke="#D8D8D8" stroke-width="1"  opacity="1"></path><path fill="none" d="M 106 267.5 L 912 267.5" stroke="#D8D8D8" stroke-width="1"  opacity="1"></path><path fill="none" d="M 106 201.5 L 912 201.5" stroke="#D8D8D8" stroke-width="1"  opacity="1"></path><path fill="none" d="M 106 136.5 L 912 136.5" stroke="#D8D8D8" stroke-width="1"  opacity="1"></path></g><g class="highcharts-grid" ><path fill="none" d="M 106 332.5 L 912 332.5" stroke="#D8D8D8" stroke-width="1"  opacity="1"></path><path fill="none" d="M 106 267.5 L 912 267.5" stroke="#D8D8D8" stroke-width="1"  opacity="1"></path><path fill="none" d="M 106 201.5 L 912 201.5" stroke="#D8D8D8" stroke-width="1"  opacity="1"></path><path fill="none" d="M 106 135.5 L 912 135.5" stroke="#D8D8D8" stroke-width="1"  opacity="1"></path></g><g class="highcharts-axis" ><path fill="none" d="M 178.5 332 L 178.5 342" stroke="#C0D0E0" stroke-width="1" opacity="1"></path><path fill="none" d="M 252.5 332 L 252.5 342" stroke="#C0D0E0" stroke-width="1" opacity="1"></path><path fill="none" d="M 325.5 332 L 325.5 342" stroke="#C0D0E0" stroke-width="1" opacity="1"></path><path fill="none" d="M 398.5 332 L 398.5 342" stroke="#C0D0E0" stroke-width="1" opacity="1"></path><path fill="none" d="M 471.5 332 L 471.5 342" stroke="#C0D0E0" stroke-width="1" opacity="1"></path><path fill="none" d="M 545.5 332 L 545.5 342" stroke="#C0D0E0" stroke-width="1" opacity="1"></path><path fill="none" d="M 618.5 332 L 618.5 342" stroke="#C0D0E0" stroke-width="1" opacity="1"></path><path fill="none" d="M 691.5 332 L 691.5 342" stroke="#C0D0E0" stroke-width="1" opacity="1"></path><path fill="none" d="M 764.5 332 L 764.5 342" stroke="#C0D0E0" stroke-width="1" opacity="1"></path><path fill="none" d="M 838.5 332 L 838.5 342" stroke="#C0D0E0" stroke-width="1" opacity="1"></path><path fill="none" d="M 911.5 332 L 911.5 342" stroke="#C0D0E0" stroke-width="1" opacity="1"></path><path fill="none" d="M 105.5 332 L 105.5 342" stroke="#C0D0E0" stroke-width="1" opacity="1"></path><path fill="none" d="M 106 332.5 L 912 332.5" stroke="#C0D0E0" stroke-width="1"  visibility="visible"></path></g><g class="highcharts-axis" ><path fill="none" d="M 178.5 136 L 178.5 126" stroke="#C0D0E0" stroke-width="1" opacity="1"></path><path fill="none" d="M 252.5 136 L 252.5 126" stroke="#C0D0E0" stroke-width="1" opacity="1"></path><path fill="none" d="M 325.5 136 L 325.5 126" stroke="#C0D0E0" stroke-width="1" opacity="1"></path><path fill="none" d="M 398.5 136 L 398.5 126" stroke="#C0D0E0" stroke-width="1" opacity="1"></path><path fill="none" d="M 471.5 136 L 471.5 126" stroke="#C0D0E0" stroke-width="1" opacity="1"></path><path fill="none" d="M 545.5 136 L 545.5 126" stroke="#C0D0E0" stroke-width="1" opacity="1"></path><path fill="none" d="M 618.5 136 L 618.5 126" stroke="#C0D0E0" stroke-width="1" opacity="1"></path><path fill="none" d="M 691.5 136 L 691.5 126" stroke="#C0D0E0" stroke-width="1" opacity="1"></path><path fill="none" d="M 764.5 136 L 764.5 126" stroke="#C0D0E0" stroke-width="1" opacity="1"></path><path fill="none" d="M 838.5 136 L 838.5 126" stroke="#C0D0E0" stroke-width="1" opacity="1"></path><path fill="none" d="M 911.5 136 L 911.5 126" stroke="#C0D0E0" stroke-width="1" opacity="1"></path><path fill="none" d="M 105.5 136 L 105.5 126" stroke="#C0D0E0" stroke-width="1" opacity="1"></path><path fill="none" d="M 106 135.5 L 912 135.5" stroke="#C0D0E0" stroke-width="1"  visibility="visible"></path></g><g class="highcharts-axis" ><text x="1013.015625"  text-anchor="middle" transform="translate(0,0) rotate(90 1013.015625 234)" class=" highcharts-yaxis-title" style="color:#000000;fill:#000000;" visibility="visible" y="234"><tspan>Hanging suicides</tspan></text></g><g class="highcharts-axis" ><text x="26.765625"  text-anchor="middle" transform="translate(0,0) rotate(270 26.765625 234)" class=" highcharts-yaxis-title" style="color:#ba0f27;fill:#ba0f27;" visibility="visible" y="234"><tspan>US spending on science</tspan></text></g><g class="highcharts-series-group" ><g class="highcharts-series" visibility="visible"  transform="translate(106,136) scale(1 1)" clip-path="url(#highcharts-63)"><path fill="none" d="M 36.63636363636363 149.38466666666667 C 36.63636363636363 149.38466666666667 80.6 145.89586666666668 109.9090909090909 140.85866666666666 C 139.2181818181818 135.82146666666668 153.87272727272725 129.25546666666668 183.18181818181816 124.19866666666667 C 212.4909090909091 119.14186666666667 227.1454545454545 118.42973333333335 256.45454545454544 115.57466666666667 C 285.7636363636363 112.71960000000001 300.4181818181818 115.57466666666667 329.7272727272727 109.92333333333335 C 359.0363636363636 104.27200000000002 373.69090909090903 87.02400000000002 402.99999999999994 87.02400000000002 C 432.3090909090908 87.02400000000002 446.9636363636363 89.89866666666667 476.27272727272725 89.89866666666667 C 505.5818181818182 89.89866666666667 520.2363636363636 87.92560000000002 549.5454545454545 81.96066666666668 C 578.8545454545454 75.99573333333336 593.5090909090908 67.17573333333337 622.8181818181818 60.07400000000001 C 652.1272727272726 52.97226666666669 666.7818181818182 51.933466666666696 696.090909090909 46.45200000000003 C 725.3999999999999 40.970533333333364 769.3636363636363 32.666666666666686 769.3636363636363 32.666666666666686" stroke="#000000" stroke-width="2"  stroke-linejoin="round" stroke-linecap="round"></path></g><g class="highcharts-markers" visibility="visible"  transform="translate(106,136) scale(1 1)" clip-path="none"><path fill="#000000" d="M 769 28.666666666666686 C 774.328 28.666666666666686 774.328 36.666666666666686 769 36.666666666666686 C 763.672 36.666666666666686 763.672 28.666666666666686 769 28.666666666666686 Z"></path><path fill="#000000" d="M 696 42.45200000000003 C 701.328 42.45200000000003 701.328 50.45200000000003 696 50.45200000000003 C 690.672 50.45200000000003 690.672 42.45200000000003 696 42.45200000000003 Z"></path><path fill="#000000" d="M 622 56.07400000000001 C 627.328 56.07400000000001 627.328 64.07400000000001 622 64.07400000000001 C 616.672 64.07400000000001 616.672 56.07400000000001 622 56.07400000000001 Z"></path><path fill="#000000" d="M 549 77.96066666666668 C 554.328 77.96066666666668 554.328 85.96066666666668 549 85.96066666666668 C 543.672 85.96066666666668 543.672 77.96066666666668 549 77.96066666666668 Z"></path><path fill="#000000" d="M 476 85.89866666666667 C 481.328 85.89866666666667 481.328 93.89866666666667 476 93.89866666666667 C 470.672 93.89866666666667 470.672 85.89866666666667 476 85.89866666666667 Z"></path><path fill="#000000" d="M 402 83.02400000000002 C 407.328 83.02400000000002 407.328 91.02400000000002 402 91.02400000000002 C 396.672 91.02400000000002 396.672 83.02400000000002 402 83.02400000000002 Z"></path><path fill="#000000" d="M 329 105.92333333333335 C 334.328 105.92333333333335 334.328 113.92333333333335 329 113.92333333333335 C 323.672 113.92333333333335 323.672 105.92333333333335 329 105.92333333333335 Z"></path><path fill="#000000" d="M 256 111.57466666666667 C 261.328 111.57466666666667 261.328 119.57466666666667 256 119.57466666666667 C 250.672 119.57466666666667 250.672 111.57466666666667 256 111.57466666666667 Z"></path><path fill="#000000" d="M 183 120.19866666666667 C 188.328 120.19866666666667 188.328 128.19866666666667 183 128.19866666666667 C 177.672 128.19866666666667 177.672 120.19866666666667 183 120.19866666666667 Z"></path><path fill="#000000" d="M 109 136.85866666666666 C 114.328 136.85866666666666 114.328 144.85866666666666 109 144.85866666666666 C 103.672 144.85866666666666 103.672 136.85866666666666 109 136.85866666666666 Z"></path><path fill="#000000" d="M 36 145.38466666666667 C 41.328 145.38466666666667 41.328 153.38466666666667 36 153.38466666666667 C 30.672 153.38466666666667 30.672 145.38466666666667 36 145.38466666666667 Z"></path></g><g class="highcharts-series" visibility="visible"  transform="translate(106,136) scale(1 1)" clip-path="url(#highcharts-63)"><path fill="none" d="M 36.63636363636363 155.76773333333333 C 36.63636363636363 155.76773333333333 80.6 153.41312 109.9090909090909 149.0384 C 139.2181818181818 144.66368 153.87272727272725 139.48666666666668 183.18181818181816 133.89413333333334 C 212.4909090909091 128.3016 227.1454545454545 122.34319999999997 256.45454545454544 121.07573333333332 C 285.7636363636363 119.80826666666667 300.4181818181818 121.07573333333332 329.7272727272727 119.80826666666667 C 359.0363636363636 118.54080000000002 373.69090909090903 98.31621333333334 402.99999999999994 91.08773333333333 C 432.3090909090908 83.85925333333333 446.9636363636363 83.66586666666664 476.27272727272725 83.66586666666664 C 505.5818181818182 83.66586666666664 520.2363636363636 83.83573333333334 549.5454545454545 83.83573333333334 C 578.8545454545454 83.83573333333334 593.5090909090908 69.31082666666671 622.8181818181818 58.47333333333336 C 652.1272727272726 47.63584000000004 666.7818181818182 39.90298666666665 696.090909090909 29.648266666666643 C 725.3999999999999 19.393546666666634 769.3636363636363 7.199733333333313 769.3636363636363 7.199733333333313" stroke="#ba0f27" stroke-width="2"  stroke-linejoin="round" stroke-linecap="round"></path></g><g class="highcharts-markers" visibility="visible"  transform="translate(106,136) scale(1 1)" clip-path="none"><path fill="#ba0f27" d="M 769 3.199733333333313 L 773 7.199733333333313 769 11.199733333333313 765 7.199733333333313 Z"></path><path fill="#ba0f27" d="M 696 25.648266666666643 L 700 29.648266666666643 696 33.64826666666664 692 29.648266666666643 Z"></path><path fill="#ba0f27" d="M 622 54.47333333333336 L 626 58.47333333333336 622 62.47333333333336 618 58.47333333333336 Z"></path><path fill="#ba0f27" d="M 549 79.83573333333334 L 553 83.83573333333334 549 87.83573333333334 545 83.83573333333334 Z"></path><path fill="#ba0f27" d="M 476 79.66586666666664 L 480 83.66586666666664 476 87.66586666666664 472 83.66586666666664 Z"></path><path fill="#ba0f27" d="M 402 87.08773333333333 L 406 91.08773333333333 402 95.08773333333333 398 91.08773333333333 Z"></path><path fill="#ba0f27" d="M 329 115.80826666666667 L 333 119.80826666666667 329 123.80826666666667 325 119.80826666666667 Z"></path><path fill="#ba0f27" d="M 256 117.07573333333332 L 260 121.07573333333332 256 125.07573333333332 252 121.07573333333332 Z"></path><path fill="#ba0f27" d="M 183 129.89413333333334 L 187 133.89413333333334 183 137.89413333333334 179 133.89413333333334 Z"></path><path fill="#ba0f27" d="M 109 145.0384 L 113 149.0384 109 153.0384 105 149.0384 Z"></path><path fill="#ba0f27" d="M 36 151.76773333333333 L 40 155.76773333333333 36 159.76773333333333 32 155.76773333333333 Z"></path></g></g><text x="520" text-anchor="middle" class="highcharts-title"  style="color:#777;font-size:18px;fill:#777;width:976px;" y="24"><tspan style="fill:#ba0f27;font-size:24px;font-weight:bold;font-family: 'lora'">US spending on science, space, and technology</tspan><tspan style="font-family: 'lora'" x="520" dy="21"> correlates with </tspan><tspan style="fill:#000000;font-size:24px;font-weight:bold;font-family: 'lora'" x="520" dy="29">Suicides by hanging, strangulation and suffocation</tspan></text><g class="highcharts-legend"  transform="translate(364,367)"><g ><g><g class="highcharts-legend-item"  transform="translate(8,3)"><path fill="none" d="M 0 11 L 16 11" stroke="#000000" stroke-width="2"></path><path fill="#000000" d="M 8 7 C 13.328 7 13.328 15 8 15 C 2.6719999999999997 15 2.6719999999999997 7 8 7 Z"></path><text x="21" style="color:#333333;font-size:12px;font-weight:bold;cursor:pointer;fill:#333333;" text-anchor="start"  y="15"><tspan>Hanging suicides</tspan></text></g><g class="highcharts-legend-item"  transform="translate(147.5,3)"><path fill="none" d="M 0 11 L 16 11" stroke="#ba0f27" stroke-width="2"></path><path fill="#ba0f27" d="M 8 7 L 12 11 8 15 4 11 Z"></path><text x="21" y="15" style="color:#333333;font-size:12px;font-weight:bold;cursor:pointer;fill:#333333;" text-anchor="start" ><tspan>US spending on science</tspan></text></g></g></g></g><g class="highcharts-axis-labels highcharts-xaxis-labels" ><text x="142.63636363636363" style="color:#000000;cursor:default;font-size:11px;fill:#000000;width:73.72727272727273;text-overflow:ellipsis;" text-anchor="middle" transform="translate(0,0)" y="351" opacity="1"><tspan>1999</tspan></text><text x="215.9090909090909" style="color:#000000;cursor:default;font-size:11px;fill:#000000;width:73.72727272727273;text-overflow:ellipsis;" text-anchor="middle" transform="translate(0,0)" y="351" opacity="1"><tspan>2000</tspan></text><text x="289.18181818181813" style="color:#000000;cursor:default;font-size:11px;fill:#000000;width:73.72727272727273;text-overflow:ellipsis;" text-anchor="middle" transform="translate(0,0)" y="351" opacity="1"><tspan>2001</tspan></text><text x="362.45454545454544" style="color:#000000;cursor:default;font-size:11px;fill:#000000;width:73.72727272727273;text-overflow:ellipsis;" text-anchor="middle" transform="translate(0,0)" y="351" opacity="1"><tspan>2002</tspan></text><text x="435.7272727272727" style="color:#000000;cursor:default;font-size:11px;fill:#000000;width:73.72727272727273;text-overflow:ellipsis;" text-anchor="middle" transform="translate(0,0)" y="351" opacity="1"><tspan>2003</tspan></text><text x="508.9999999999999" style="color:#000000;cursor:default;font-size:11px;fill:#000000;width:73.72727272727273;text-overflow:ellipsis;" text-anchor="middle" transform="translate(0,0)" y="351" opacity="1"><tspan>2004</tspan></text><text x="582.2727272727273" style="color:#000000;cursor:default;font-size:11px;fill:#000000;width:73.72727272727273;text-overflow:ellipsis;" text-anchor="middle" transform="translate(0,0)" y="351" opacity="1"><tspan>2005</tspan></text><text x="655.5454545454545" style="color:#000000;cursor:default;font-size:11px;fill:#000000;width:73.72727272727273;text-overflow:ellipsis;" text-anchor="middle" transform="translate(0,0)" y="351" opacity="1"><tspan>2006</tspan></text><text x="728.8181818181818" style="color:#000000;cursor:default;font-size:11px;fill:#000000;width:73.72727272727273;text-overflow:ellipsis;" text-anchor="middle" transform="translate(0,0)" y="351" opacity="1"><tspan>2007</tspan></text><text x="802.090909090909" style="color:#000000;cursor:default;font-size:11px;fill:#000000;width:73.72727272727273;text-overflow:ellipsis;" text-anchor="middle" transform="translate(0,0)" y="351" opacity="1"><tspan>2008</tspan></text><text x="875.3636363636363" style="color:#000000;cursor:default;font-size:11px;fill:#000000;width:73.72727272727273;text-overflow:ellipsis;" text-anchor="middle" transform="translate(0,0)" y="351" opacity="1"><tspan>2009</tspan></text></g><g class="highcharts-axis-labels highcharts-xaxis-labels" ><text x="142.63636363636363" style="color:#ba0f27;cursor:default;font-size:11px;fill:#ba0f27;width:73.72727272727273;text-overflow:ellipsis;" text-anchor="middle" transform="translate(0,0)" y="121" opacity="1"><tspan>1999</tspan></text><text x="215.9090909090909" style="color:#ba0f27;cursor:default;font-size:11px;fill:#ba0f27;width:73.72727272727273;text-overflow:ellipsis;" text-anchor="middle" transform="translate(0,0)" y="121" opacity="1"><tspan>2000</tspan></text><text x="289.18181818181813" style="color:#ba0f27;cursor:default;font-size:11px;fill:#ba0f27;width:73.72727272727273;text-overflow:ellipsis;" text-anchor="middle" transform="translate(0,0)" y="121" opacity="1"><tspan>2001</tspan></text><text x="362.45454545454544" style="color:#ba0f27;cursor:default;font-size:11px;fill:#ba0f27;width:73.72727272727273;text-overflow:ellipsis;" text-anchor="middle" transform="translate(0,0)" y="121" opacity="1"><tspan>2002</tspan></text><text x="435.7272727272727" style="color:#ba0f27;cursor:default;font-size:11px;fill:#ba0f27;width:73.72727272727273;text-overflow:ellipsis;" text-anchor="middle" transform="translate(0,0)" y="121" opacity="1"><tspan>2003</tspan></text><text x="508.9999999999999" style="color:#ba0f27;cursor:default;font-size:11px;fill:#ba0f27;width:73.72727272727273;text-overflow:ellipsis;" text-anchor="middle" transform="translate(0,0)" y="121" opacity="1"><tspan>2004</tspan></text><text x="582.2727272727273" style="color:#ba0f27;cursor:default;font-size:11px;fill:#ba0f27;width:73.72727272727273;text-overflow:ellipsis;" text-anchor="middle" transform="translate(0,0)" y="121" opacity="1"><tspan>2005</tspan></text><text x="655.5454545454545" style="color:#ba0f27;cursor:default;font-size:11px;fill:#ba0f27;width:73.72727272727273;text-overflow:ellipsis;" text-anchor="middle" transform="translate(0,0)" y="121" opacity="1"><tspan>2006</tspan></text><text x="728.8181818181818" style="color:#ba0f27;cursor:default;font-size:11px;fill:#ba0f27;width:73.72727272727273;text-overflow:ellipsis;" text-anchor="middle" transform="translate(0,0)" y="121" opacity="1"><tspan>2007</tspan></text><text x="802.090909090909" style="color:#ba0f27;cursor:default;font-size:11px;fill:#ba0f27;width:73.72727272727273;text-overflow:ellipsis;" text-anchor="middle" transform="translate(0,0)" y="121" opacity="1"><tspan>2008</tspan></text><text x="875.3636363636363" style="color:#ba0f27;cursor:default;font-size:11px;fill:#ba0f27;width:73.72727272727273;text-overflow:ellipsis;" text-anchor="middle" transform="translate(0,0)" y="121" opacity="1"><tspan>2009</tspan></text></g><g class="highcharts-axis-labels highcharts-yaxis-labels" ><text x="927" style="color:#000000;cursor:default;font-size:11px;fill:#000000;width:333px;text-overflow:clip;" text-anchor="start" transform="translate(0,0)" y="270" opacity="1"><tspan>6000 suicides</tspan></text><text x="927" style="color:#000000;cursor:default;font-size:11px;fill:#000000;width:333px;text-overflow:clip;" text-anchor="start" transform="translate(0,0)" y="205" opacity="1"><tspan>8000 suicides</tspan></text><text x="927" style="color:#000000;cursor:default;font-size:11px;fill:#000000;width:333px;text-overflow:clip;" text-anchor="start" transform="translate(0,0)" y="336" opacity="1"><tspan>4000 suicides</tspan></text><text x="927" style="color:#000000;cursor:default;font-size:11px;fill:#000000;width:333px;text-overflow:clip;" text-anchor="start" transform="translate(0,0)" y="140" opacity="1"><tspan>10000 suicides</tspan></text></g><g class="highcharts-axis-labels highcharts-yaxis-labels" ><text x="91" style="color:#ba0f27;cursor:default;font-size:11px;fill:#ba0f27;width:333px;text-overflow:clip;" text-anchor="end" transform="translate(0,0)" y="336" opacity="1"><tspan>$15 billion</tspan></text><text x="91" style="color:#ba0f27;cursor:default;font-size:11px;fill:#ba0f27;width:333px;text-overflow:clip;" text-anchor="end" transform="translate(0,0)" y="270" opacity="1"><tspan>$20 billion</tspan></text><text x="91" style="color:#ba0f27;cursor:default;font-size:11px;fill:#ba0f27;width:333px;text-overflow:clip;" text-anchor="end" transform="translate(0,0)" y="205" opacity="1"><tspan>$25 billion</tspan></text><text x="91" style="color:#ba0f27;cursor:default;font-size:11px;fill:#ba0f27;width:333px;text-overflow:clip;" text-anchor="end" transform="translate(0,0)" y="140" opacity="1"><tspan>$30 billion</tspan></text></g><g class="highcharts-tooltip"  style="cursor:default;padding:0;white-space:nowrap;" transform="translate(0,-9999)"><path fill="none" d="M 3 0 L 13 0 C 16 0 16 0 16 3 L 16 13 C 16 16 16 16 13 16 L 3 16 C 0 16 0 16 0 13 L 0 3 C 0 0 0 0 3 0"  stroke="black" stroke-opacity="0.049999999999999996" stroke-width="5" transform="translate(1, 1)"></path><path fill="none" d="M 3 0 L 13 0 C 16 0 16 0 16 3 L 16 13 C 16 16 16 16 13 16 L 3 16 C 0 16 0 16 0 13 L 0 3 C 0 0 0 0 3 0"  stroke="black" stroke-opacity="0.09999999999999999" stroke-width="3" transform="translate(1, 1)"></path><path fill="none" d="M 3 0 L 13 0 C 16 0 16 0 16 3 L 16 13 C 16 16 16 16 13 16 L 3 16 C 0 16 0 16 0 13 L 0 3 C 0 0 0 0 3 0"  stroke="black" stroke-opacity="0.15" stroke-width="1" transform="translate(1, 1)"></path><path fill="rgb(249, 249, 249)" fill-opacity=" .85" d="M 3 0 L 13 0 C 16 0 16 0 16 3 L 16 13 C 16 16 16 16 13 16 L 3 16 C 0 16 0 16 0 13 L 0 3 C 0 0 0 0 3 0"></path><text x="8"  style="font-size:12px;color:#333333;fill:#333333;" transform="translate(0,20)"></text></g><text x="1030" text-anchor="end"  style="cursor:pointer;color:#909090;font-size:9px;fill:#909090;" y="405">tylervigen.com</text></svg>